<?xml version="1.0" encoding="UTF-8" standalone="no"?>
<svg
   width="1280"
   height="720"
   overflow="hidden"
   version="1.1"
   id="svg97"
   sodipodi:docname="shema_angle2.svg"
   inkscape:version="1.3.2 (091e20e, 2023-11-25, custom)"
   xmlns:inkscape="http://www.inkscape.org/namespaces/inkscape"
   xmlns:sodipodi="http://sodipodi.sourceforge.net/DTD/sodipodi-0.dtd"
   xmlns="http://www.w3.org/2000/svg"
   xmlns:svg="http://www.w3.org/2000/svg">
  <sodipodi:namedview
     id="namedview97"
     pagecolor="#ffffff"
     bordercolor="#000000"
     borderopacity="0.25"
     inkscape:showpageshadow="2"
     inkscape:pageopacity="0.0"
     inkscape:pagecheckerboard="0"
     inkscape:deskcolor="#d1d1d1"
     inkscape:zoom="2.3445313"
     inkscape:cx="640"
     inkscape:cy="359.98667"
     inkscape:window-width="3840"
     inkscape:window-height="2054"
     inkscape:window-x="2872"
     inkscape:window-y="6"
     inkscape:window-maximized="1"
     inkscape:current-layer="g97" />
  <defs
     id="defs1">
    <clipPath
       id="clip0">
      <rect
         x="0"
         y="0"
         width="1280"
         height="720"
         id="rect1" />
    </clipPath>
  </defs>
  <g
     clip-path="url(#clip0)"
     id="g97">
    <path
       d="M441.867 138.497C439.738 141.496 437.61 144.495 435.512 146.544 433.414 148.593 431.024 149.911 429.28 150.791 427.536 151.671 426.292 151.747 425.048 151.823"
       stroke="#DCA152"
       stroke-width="0.666667"
       stroke-miterlimit="8"
       fill="none"
       fill-rule="evenodd"
       id="path2" />
    <path
       d="M462.358 216.505 464.016 222.463"
       stroke="#DCA152"
       stroke-width="0.666667"
       stroke-miterlimit="8"
       fill="none"
       fill-rule="evenodd"
       id="path3" />
    <path
       d="M435.542 195.095 429.854 197.522"
       stroke="#DCA152"
       stroke-width="0.666667"
       stroke-miterlimit="8"
       fill="none"
       fill-rule="evenodd"
       id="path4" />
    <path
       d="M564.449 211.849 560.257 216.396"
       stroke="#DCA152"
       stroke-width="0.666667"
       stroke-miterlimit="8"
       fill="none"
       fill-rule="evenodd"
       id="path5" />
    <path
       d="M455.617 248.96C453.92 250.207 452.223 251.454 451.317 252.721 450.411 253.989 450.487 255.343 450.179 256.566 449.871 257.789 449.67 258.925 449.469 260.061"
       stroke="#FFC271"
       stroke-width="0.666667"
       stroke-miterlimit="8"
       fill="none"
       fill-rule="evenodd"
       id="path6" />
    <path
       d="M616.668 190.5C616.486 194.246 616.303 197.992 616.982 200.672 617.66 203.352 619.488 204.774 620.741 206.578 621.994 208.383 623.247 209.941 624.5 211.5"
       stroke="#FFC271"
       stroke-width="0.666667"
       stroke-miterlimit="8"
       fill="none"
       fill-rule="evenodd"
       id="path7" />
    <path
       d="M576.586 156.927C586.656 159.812 596.725 162.698 602.517 166.919 608.31 171.14 607.151 175.491 611.34 182.253 615.53 189.016 622.136 200.942 627.655 207.494 633.175 214.045 637.999 216.508 644.456 221.564 650.914 226.62 661.438 233.71 666.399 237.828 671.361 241.945 671.125 244.114 674.224 246.27 677.323 248.427 681.159 249.597 684.995 250.768"
       stroke="#DCA152"
       stroke-miterlimit="8"
       fill="none"
       fill-rule="evenodd"
       id="path8" />
    <path
       d="M462.71 322.5C462.482 325.533 462.254 328.565 463.102 330.734 463.95 332.904 466.235 334.055 467.801 335.516 469.367 336.977 470.934 338.238 472.5 339.5"
       stroke="#FFC271"
       stroke-width="0.666667"
       stroke-miterlimit="8"
       fill="none"
       fill-rule="evenodd"
       id="path9" />
    <path
       d="M489.5 80.5001C491.209 81.0843 497.931 81.3626 503.448 83.338 508.966 85.3134 514.315 87.2889 522.606 92.3526 532.213 97.4999 542.586 109.603 549.494 114.389 556.401 119.174 558.716 120.37 563.381 126.074 568.046 131.778 577.933 129.663 577.485 148.611 577.038 167.559 563.381 213.967 560.694 239.759 558.008 265.551 560.358 285.751 561.366 303.363 562.373 320.975 564.948 333.662 566.739 345.432 568.53 357.201 570.769 366.967 572.112 373.978 573.456 380.99 574.127 384.245 574.799 387.5"
       stroke="#A16C31"
       stroke-width="1.33333"
       stroke-miterlimit="8"
       fill="none"
       fill-rule="evenodd"
       id="path10" />
    <path
       d="M486.5 83.4605C479.458 81.9631 472.417 80.4658 466.5 82.4622 460.583 84.4587 454 90.8641 451 95.4393 448 100.015 450.417 99.7652 448.5 109.914 446.583 120.063 440.917 146.35 439.5 156.332 438.083 166.314 439.917 165.067 440 169.808 440.083 174.55 440.917 179.624 440 184.782 439.083 189.939 439.083 186.945 434.5 200.754 429.917 214.563 420.75 246.589 412.5 267.636 404.25 288.682 392.167 314.22 385 327.031 377.833 339.842 373.667 342.171 369.5 344.5"
       stroke="#A16C31"
       stroke-width="1.33333"
       stroke-miterlimit="8"
       fill="none"
       fill-rule="evenodd"
       id="path11" />
    <path
       d="M486.5 86.6649C480.5 86.3865 474.5 86.1082 469.167 89.0031 463.833 91.898 457.944 98.4114 454.5 104.034 451.056 109.657 450.5 113.108 448.5 122.739 446.5 132.37 443.278 151.354 442.5 161.82 441.722 172.286 445.778 175.292 443.833 185.536 441.889 195.779 435.056 210.254 430.833 223.281 426.611 236.307 423.667 250.002 418.5 263.697 413.333 277.392 404.833 294.483 399.833 305.45 394.833 316.417 391.667 322.959 388.5 329.5"
       stroke="#A16C31"
       stroke-width="1.33333"
       stroke-miterlimit="8"
       fill="none"
       fill-rule="evenodd"
       id="path12" />
    <path
       d="M484.5 93.5001C481.813 95.8439 479.125 98.1878 477.711 102.206 476.297 106.224 477.994 113.423 476.014 117.609 474.034 121.794 470.187 123.468 465.83 127.319 461.474 131.17 452.762 135.411 449.876 140.713 446.991 146.014 448.914 154.664 448.518 159.129 448.122 163.594 447.811 165.547 447.5 167.5"
       stroke="#A16C31"
       stroke-width="1.33333"
       stroke-miterlimit="8"
       fill="none"
       fill-rule="evenodd"
       id="path13" />
    <path
       d="M487.5 102.5C491.345 104.572 507.108 109.892 512.546 112.916 517.983 115.94 523.146 118.012 527.375 121.316 531.604 124.62 534.9 128.876 537.921 132.74 540.941 136.604 543.413 140.02 545.5 144.5"
       stroke="#A16C31"
       stroke-width="1.33333"
       stroke-miterlimit="8"
       fill="none"
       fill-rule="evenodd"
       id="path14" />
    <path
       d="M482.5 123.5C479.944 127.285 477.389 131.07 473.5 134.032 469.611 136.994 462.833 138.694 459.167 141.272 455.5 143.85 453.5 146.675 451.5 149.5"
       stroke="#A16C31"
       stroke-width="1.33333"
       stroke-miterlimit="8"
       fill="none"
       fill-rule="evenodd"
       id="path15" />
    <path
       d="M484.5 127.5C492.784 131.914 501.068 136.327 507.673 140.158 514.277 143.988 519.259 148.152 524.128 150.484 528.998 152.815 534.595 153.537 536.89 154.148 539.185 154.758 538.541 154.453 537.898 154.148"
       stroke="#A16C31"
       stroke-width="1.33333"
       stroke-miterlimit="8"
       fill="none"
       fill-rule="evenodd"
       id="path16" />
    <path
       d="M486.5 137.5C483.139 141.306 479.778 145.111 477.833 148.5 475.889 151.889 475.722 154.833 474.833 157.833 473.944 160.833 473.222 163.667 472.5 166.5"
       stroke="#A16C31"
       stroke-width="1.33333"
       stroke-miterlimit="8"
       fill="none"
       fill-rule="evenodd"
       id="path17" />
    <path
       d="M493.149 143.5C487.708 150.206 482.267 156.911 479.112 162.865 475.956 168.82 474.977 170.044 474.215 179.226 473.453 188.408 472.964 205.158 474.542 217.957 476.119 230.756 481.125 246.003 483.682 256.02 486.239 266.037 488.796 271.768 489.884 278.057 490.973 284.345 490.429 289.13 490.211 293.749 489.993 298.368 488.035 300.26 488.579 305.769 489.123 311.278 492.17 321.184 493.475 326.804 494.781 332.424 496.087 336.542 496.413 339.492 496.74 342.441 496.087 343.471 495.434 344.5"
       stroke="#A16C31"
       stroke-width="1.33333"
       stroke-miterlimit="8"
       fill="none"
       fill-rule="evenodd"
       id="path18" />
    <path
       d="M495.5 144.5C492.754 149.628 490.007 154.756 487.844 160.976 485.68 167.197 484.071 174.482 482.517 181.823 480.964 189.165 478.745 198.411 478.523 205.024 478.301 211.637 479.743 216.568 481.186 221.5"
       stroke="#A16C31"
       stroke-width="1.33333"
       stroke-miterlimit="8"
       fill="none"
       fill-rule="evenodd"
       id="path19" />
    <path
       d="M429.39 212.203 425.274 216.819"
       stroke="#DCA152"
       stroke-width="0.666667"
       stroke-miterlimit="8"
       fill="none"
       fill-rule="evenodd"
       id="path20" />
    <path
       d="M426.5 223.124 420.598 223.365C419.205 223.406 419.246 223.647 418.139 223.365 417.033 223.084 415.066 222.319 413.959 221.674 412.852 221.03 412.176 220.265 411.5 219.5"
       stroke="#DCA152"
       stroke-width="0.666667"
       stroke-miterlimit="8"
       fill="none"
       fill-rule="evenodd"
       id="path21" />
    <path
       d="M423.5 233.5C421.386 233 419.273 232.5 417.773 232 416.273 231.5 415.386 231 414.5 230.5"
       stroke="#DCA152"
       stroke-width="0.666667"
       stroke-miterlimit="8"
       fill="none"
       fill-rule="evenodd"
       id="path22" />
    <path
       d="M422.5 235.5C418.166 234.729 413.832 233.958 409.56 233.75 405.288 233.542 400.145 234.5 396.869 234.25 393.592 234 392.721 233.292 389.901 232.25 387.081 231.208 383.016 229.5 379.947 228 376.878 226.5 373.394 224.333 371.486 223.25 369.578 222.167 369.039 221.833 368.5 221.5"
       stroke="#DCA152"
       stroke-width="0.666667"
       stroke-miterlimit="8"
       fill="none"
       fill-rule="evenodd"
       id="path23" />
    <path
       d="M420.5 241.5 412.5 237.5"
       stroke="#DCA152"
       stroke-width="0.666667"
       stroke-miterlimit="8"
       fill="none"
       fill-rule="evenodd"
       id="path24" />
    <path
       d="M417.5 251.936C415.188 251.486 412.875 251.036 410.75 251.2 408.625 251.364 406.458 252.591 404.75 252.918 403.042 253.246 402.375 253.9 400.5 253.164 398.625 252.427 396.063 250.464 393.5 248.5"
       stroke="#DCA152"
       stroke-width="0.666667"
       stroke-miterlimit="8"
       fill="none"
       fill-rule="evenodd"
       id="path25" />
    <path
       d="M412.5 266.5C407.935 265.858 403.37 265.216 400.409 264.333 397.448 263.451 396.297 262.006 394.734 261.204 393.171 260.401 392.883 259.639 391.033 259.519 389.182 259.398 385.727 259.88 383.63 260.482 381.532 261.083 379.97 262.728 378.448 263.13 376.927 263.531 375.713 263.21 374.5 262.889"
       stroke="#DCA152"
       stroke-width="0.666667"
       stroke-miterlimit="8"
       fill="none"
       fill-rule="evenodd"
       id="path26" />
    <path
       d="M407.5 279.247C404.833 280.33 402.167 281.413 399.5 281.496 396.833 281.58 394.167 280.288 391.5 279.747 388.833 279.205 386.458 279.164 383.5 278.247 380.542 277.331 376.417 275.54 373.75 274.249 371.083 272.958 369.292 271.729 367.5 270.5"
       stroke="#DCA152"
       stroke-width="0.666667"
       stroke-miterlimit="8"
       fill="none"
       fill-rule="evenodd"
       id="path27" />
    <path
       d="M403.5 287.797C400.5 286.901 397.5 286.005 394.5 286.819 391.5 287.634 387.958 291.298 385.5 292.683 383.042 294.067 382.417 294.189 379.75 295.125 377.083 296.062 371.875 297.528 369.5 298.301 367.125 299.075 365.5 299.767 365.5 299.767L363.5 300.5"
       stroke="#DCA152"
       stroke-width="0.666667"
       stroke-miterlimit="8"
       fill="none"
       fill-rule="evenodd"
       id="path28" />
    <path
       d="M395.5 304.5C392.39 303.554 389.279 302.609 385.796 302.111 382.312 301.613 377.709 301.448 374.599 301.514 371.488 301.58 369.622 302.41 367.134 302.509 364.646 302.609 361.991 302.178 359.669 302.111 357.347 302.045 355.107 301.978 353.2 302.111 351.292 302.244 350.006 302.675 348.223 302.907 346.44 303.14 344.47 303.322 342.5 303.505"
       stroke="#DCA152"
       stroke-width="0.666667"
       stroke-miterlimit="8"
       fill="none"
       fill-rule="evenodd"
       id="path29" />
    <path
       d="M382.5 329.207C380.778 329.461 379.056 329.715 376.888 329.207 374.719 328.698 371.786 327.257 369.49 326.155 367.194 325.054 365.111 322.977 363.112 322.596 361.114 322.214 359.307 323.041 357.5 323.867"
       stroke="#DCA152"
       stroke-width="0.666667"
       stroke-miterlimit="8"
       fill="none"
       fill-rule="evenodd"
       id="path30" />
    <path
       d="M459.5 249.094C455.833 249.387 452.167 249.679 449.25 249.364 446.333 249.049 443.792 248.013 442 247.202 440.208 246.392 439.354 245.446 438.5 244.5"
       stroke="#DCA152"
       stroke-width="0.666667"
       stroke-miterlimit="8"
       fill="none"
       fill-rule="evenodd"
       id="path31" />
    <path
       d="M456.5 264.5 449.862 264.038C447.351 263.846 443.734 263.615 441.436 263.346 439.138 263.077 437.564 262.731 436.074 262.423 434.585 262.115 433.543 261.808 432.5 261.5"
       stroke="#DCA152"
       stroke-width="0.666667"
       stroke-miterlimit="8"
       fill="none"
       fill-rule="evenodd"
       id="path32" />
    <path
       d="M454.5 274.5C451.017 274.083 447.533 273.667 445.7 273 443.867 272.333 443.683 271.417 443.5 270.5"
       stroke="#DCA152"
       stroke-width="0.666667"
       stroke-miterlimit="8"
       fill="none"
       fill-rule="evenodd"
       id="path33" />
    <path
       d="M454.5 286.063C452.262 285.852 450.024 285.641 448.094 285.641 446.164 285.641 444.193 285.922 442.92 286.063 441.647 286.204 441.36 286.579 440.457 286.485 439.553 286.391 438.527 285.946 437.5 285.5"
       stroke="#DCA152"
       stroke-width="0.666667"
       stroke-miterlimit="8"
       fill="none"
       fill-rule="evenodd"
       id="path34" />
    <path
       d="M412.5 278.5C414.962 279.888 417.423 281.276 419.392 282.477 421.362 283.679 423.044 284.631 424.315 285.709 425.587 286.786 425.628 287.863 427.023 288.94 428.418 290.017 430.592 291.591 432.685 292.171 434.777 292.751 437.608 292.379 439.577 292.42 441.546 292.461 443.023 292.441 444.5 292.42"
       stroke="#DCA152"
       stroke-width="0.666667"
       stroke-miterlimit="8"
       fill="none"
       fill-rule="evenodd"
       id="path35" />
    <path
       d="M451.5 302.5 444.586 301.501C442.405 301.167 440.389 300.534 438.414 300.501 436.438 300.468 433.887 301.167 432.735 301.301 431.582 301.434 431.541 301.367 431.5 301.301"
       stroke="#DCA152"
       stroke-width="0.666667"
       stroke-miterlimit="8"
       fill="none"
       fill-rule="evenodd"
       id="path36" />
    <path
       d="M404.5 295.5C406.022 297.686 407.545 299.871 409.321 301.933 411.097 303.995 413.254 306.263 415.157 307.871 417.06 309.479 418.709 310.428 420.739 311.583 422.769 312.737 425.179 313.645 427.336 314.799 429.493 315.954 431.819 317.727 433.679 318.51 435.54 319.294 437.02 319.397 438.5 319.5"
       stroke="#DCA152"
       stroke-width="0.666667"
       stroke-miterlimit="8"
       fill="none"
       fill-rule="evenodd"
       id="path37" />
    <path
       d="M396.5 312.5C398.606 313.468 400.713 314.437 402.628 315.647 404.543 316.858 406.755 318.391 407.989 319.763 409.223 321.135 409.053 322.547 410.032 323.879 411.011 325.211 412.202 326.381 413.862 327.753 415.521 329.125 417.692 330.981 419.989 332.111 422.287 333.24 425.564 333.967 427.649 334.532 429.734 335.097 431.117 335.298 432.5 335.5"
       stroke="#DCA152"
       stroke-width="0.666667"
       stroke-miterlimit="8"
       fill="none"
       fill-rule="evenodd"
       id="path38" />
    <path
       d="M391.5 324.5 404.235 326.814C406.97 327.371 406.561 327.071 407.908 327.843 409.255 328.614 411.051 330.5 412.316 331.443 413.582 332.386 414.541 332.943 415.5 333.5"
       stroke="#DCA152"
       stroke-width="0.666667"
       stroke-miterlimit="8"
       fill="none"
       fill-rule="evenodd"
       id="path39" />
    <path
       d="M435.5 342.449C432.917 342.493 430.333 342.537 428.25 342.449 426.167 342.362 424.417 342.274 423 341.923 421.583 341.572 420.458 340.694 419.75 340.343 419.042 339.992 418.75 339.816 418.75 339.816 418.458 339.685 418.708 339.773 418 339.553L414.5 338.5"
       stroke="#DCA152"
       stroke-width="0.666667"
       stroke-miterlimit="8"
       fill="none"
       fill-rule="evenodd"
       id="path40" />
    <path
       d="M462.5 237.5C465.113 239.744 467.726 241.989 469.637 243.271 471.549 244.553 472.993 244.828 473.971 245.195 474.948 245.561 475.224 245.515 475.5 245.47"
       stroke="#DCA152"
       stroke-width="0.666667"
       stroke-miterlimit="8"
       fill="none"
       fill-rule="evenodd"
       id="path41" />
    <path
       d="M449.5 309.5C451.626 310.03 453.752 310.561 456.858 311.214 459.965 311.867 464.871 312.642 468.142 313.417 471.412 314.192 474.764 314.968 476.481 315.865 478.198 316.763 477.789 317.865 478.443 318.803 479.097 319.742 479.425 320.354 480.406 321.496 481.387 322.639 483.308 324.842 484.33 325.658 485.352 326.474 486.538 326.393 486.538 326.393 486.988 326.515 486.701 326.556 487.028 326.393 487.355 326.229 487.928 325.821 488.5 325.413"
       stroke="#DCA152"
       stroke-width="0.666667"
       stroke-miterlimit="8"
       fill="none"
       fill-rule="evenodd"
       id="path42" />
    <path
       d="M438.5 336.5C440.917 338.698 443.333 340.897 445.25 342.171 447.167 343.444 447.917 343.157 450 344.143 452.083 345.129 455.917 346.608 457.75 348.088 459.583 349.567 459.958 351.745 461 353.019 462.042 354.292 462.917 354.95 464 355.731 465.083 356.511 466.542 357.292 467.5 357.703 468.458 358.114 468.833 358.032 469.75 358.196 470.667 358.361 472.125 358.484 473 358.689 473.875 358.895 474.417 359.306 475 359.429 475.583 359.552 476.042 359.491 476.5 359.429"
       stroke="#DCA152"
       stroke-width="0.666667"
       stroke-miterlimit="8"
       fill="none"
       fill-rule="evenodd"
       id="path43" />
    <path
       d="M504.5 338.5 513.25 341.291C515.292 341.968 515.042 342.01 516.75 342.56 518.458 343.11 521.333 343.745 523.5 344.59 525.667 345.436 527.875 346.494 529.75 347.635 531.625 348.777 533.417 350.511 534.75 351.442 536.083 352.372 537.125 352.88 537.75 353.218 538.375 353.557 538.438 353.514 538.5 353.472"
       stroke="#A16C31"
       stroke-width="1.33333"
       stroke-miterlimit="8"
       fill="none"
       fill-rule="evenodd"
       id="path44" />
    <path
       d="M519.5 161.5C516.808 163.506 513.57 165.753 511.425 167.519 509.28 169.284 508.271 170.969 506.631 172.093 504.991 173.216 503.435 174.139 501.584 174.259 499.734 174.38 497.042 172.775 495.528 172.815 494.014 172.855 493.257 173.678 492.5 174.5"
       stroke="#9E6B35"
       stroke-width="1.33333"
       stroke-miterlimit="8"
       fill="none"
       fill-rule="evenodd"
       id="path45" />
    <path
       d="M527.5 172.5C532.77 172.5 538.04 172.5 540.706 173.333 543.373 174.167 543.437 175.833 543.5 177.5"
       stroke="#9E6B35"
       stroke-width="1.33333"
       stroke-miterlimit="8"
       fill="none"
       fill-rule="evenodd"
       id="path46" />
    <path
       d="M528.5 185.5 536.5 186.5"
       stroke="#9E6B35"
       stroke-width="1.33333"
       stroke-miterlimit="8"
       fill="none"
       fill-rule="evenodd"
       id="path47" />
    <path
       d="M521.5 213.587 515.343 213.103C512.388 212.942 506.355 212.217 503.769 212.62 501.183 213.023 501.675 214.875 499.828 215.52 497.981 216.164 494.575 216.406 492.687 216.486 490.799 216.567 489.649 216.285 488.5 216.003"
       stroke="#9E6B35"
       stroke-width="1.33333"
       stroke-miterlimit="8"
       fill="none"
       fill-rule="evenodd"
       id="path48" />
    <path
       d="M519.5 227.438C517.646 226.824 515.792 226.21 513 226.648 510.208 227.087 505 229.368 502.75 230.07 500.5 230.772 501.042 230.86 499.5 230.86 497.958 230.86 495.167 229.719 493.5 230.07 491.833 230.421 490.333 232.395 489.5 232.965 488.667 233.536 488.583 233.514 488.5 233.492"
       stroke="#A16C31"
       stroke-width="1.33333"
       stroke-miterlimit="8"
       fill="none"
       fill-rule="evenodd"
       id="path49" />
    <text
       font-family="Arial,Arial_MSFontService,sans-serif"
       font-weight="400"
       font-size="14"
       transform="translate(578.366 155)"
       id="text49">B</text>
    <path
       d="M545.5 158C545.5 141.155 559.155 127.5 576 127.5 592.845 127.5 606.5 141.155 606.5 158 606.5 174.845 592.845 188.5 576 188.5 559.155 188.5 545.5 174.845 545.5 158Z"
       stroke="#FF0000"
       stroke-width="1.33333"
       stroke-miterlimit="8"
       stroke-dasharray="1.33333 1.33333"
       fill="none"
       fill-rule="evenodd"
       id="path50" />
    <text
       font-family="Arial,Arial_MSFontService,sans-serif"
       font-weight="400"
       font-size="14"
       transform="translate(607.588 170)"
       id="text52">C<tspan
   font-size="14"
   x="-51.7385"
   y="27"
   id="tspan50">A</tspan><tspan
   font-size="14"
   x="81.4938"
   y="88"
   id="tspan51">C</tspan><tspan
   font-size="14"
   x="91.6605"
   y="88"
   id="tspan52">′</tspan></text>
    <path
       d="M573 157C573 155.343 574.343 154 576 154 577.657 154 579 155.343 579 157 579 158.657 577.657 160 576 160 574.343 160 573 158.657 573 157Z"
       fill="#000000"
       fill-rule="evenodd"
       fill-opacity="0.6"
       id="path52" />
    <path
       d="M602 168C602 166.895 602.895 166 604 166 605.105 166 606 166.895 606 168 606 169.105 605.105 170 604 170 602.895 170 602 169.105 602 168Z"
       fill="#000000"
       fill-rule="evenodd"
       fill-opacity="0.698039"
       id="path53" />
    <path
       d="M568 187.5C568 186.672 568.895 186 570 186 571.105 186 572 186.672 572 187.5 572 188.328 571.105 189 570 189 568.895 189 568 188.328 568 187.5Z"
       fill="#000000"
       fill-rule="evenodd"
       fill-opacity="0.698039"
       id="path54" />
    <path
       d="M683.016 247.708 685.301 249.994 687.587 247.708 688.361 248.482 686.076 250.768 688.361 253.053 687.587 253.827 685.301 251.542 683.016 253.827 682.242 253.053 684.527 250.768 682.242 248.482Z"
       fill="#000000"
       fill-rule="evenodd"
       fill-opacity="0.6"
       id="path55" />
    <path
       d="M528.5 194.5C531.309 195.341 534.118 196.182 535.952 196.422 537.785 196.663 538.643 196.302 539.5 195.942"
       stroke="#A16C31"
       stroke-width="1.33333"
       stroke-miterlimit="8"
       fill="none"
       fill-rule="evenodd"
       id="path56" />
    <path
       d="M523.5 226.5C526.206 226.97 528.912 227.439 530.912 227.494 532.912 227.55 534.206 227.191 535.5 226.831"
       stroke="#A16C31"
       stroke-width="1.33333"
       stroke-miterlimit="8"
       fill="none"
       fill-rule="evenodd"
       id="path57" />
    <path
       d="M517.5 239.281C514.045 238.819 510.589 238.357 508.179 238.542 505.768 238.727 503.036 240.391 503.036 240.391 501.964 240.76 501.75 240.76 501.75 240.76 501.375 240.822 501.161 240.637 500.786 240.76 500.411 240.884 499.955 241.192 499.5 241.5"
       stroke="#A16C31"
       stroke-width="1.33333"
       stroke-miterlimit="8"
       fill="none"
       fill-rule="evenodd"
       id="path58" />
    <path
       d="M527.5 203.5C530.081 205.072 532.663 206.644 534.329 207.219 535.996 207.795 536.748 207.374 537.5 206.954"
       stroke="#A16C31"
       stroke-width="1.33333"
       stroke-miterlimit="8"
       fill="none"
       fill-rule="evenodd"
       id="path59" />
    <path
       d="M521.5 239.711C522.972 239.826 524.444 239.941 526.581 239.908 528.718 239.875 532.669 239.415 534.323 239.514 535.976 239.613 536.238 240.056 536.5 240.5"
       stroke="#A16C31"
       stroke-width="1.33333"
       stroke-miterlimit="8"
       fill="none"
       fill-rule="evenodd"
       id="path60" />
    <path
       d="M518.5 245.853C514.83 245.637 511.161 245.421 508.827 245.529 506.494 245.637 505.497 246.068 504.5 246.5"
       stroke="#A16C31"
       stroke-width="1.33333"
       stroke-miterlimit="8"
       fill="none"
       fill-rule="evenodd"
       id="path61" />
    <path
       d="M518.5 260.5C521.089 261.764 523.678 263.028 525.897 263.767 528.116 264.506 530.048 264.311 531.815 264.933 533.582 265.556 535.041 266.528 536.5 267.5"
       stroke="#A16C31"
       stroke-width="1.33333"
       stroke-miterlimit="8"
       fill="none"
       fill-rule="evenodd"
       id="path62" />
    <path
       d="M513.5 282.5C515.289 283.735 517.078 284.969 518.611 286.386 520.145 287.802 520.528 289.988 522.7 291 524.872 292.012 529.344 292.295 531.644 292.457 533.944 292.619 535.222 292.295 536.5 291.971"
       stroke="#A16C31"
       stroke-width="1.33333"
       stroke-miterlimit="8"
       fill="none"
       fill-rule="evenodd"
       id="path63" />
    <path
       d="M509.5 298.5C511.604 298.721 513.708 298.941 515.25 299.463 516.792 299.985 517.375 301.349 518.75 301.63 520.125 301.911 522.167 301.188 523.5 301.148 524.833 301.108 525.375 300.867 526.75 301.389 528.125 301.91 529.75 302.994 531.75 304.278 533.75 305.562 537.292 307.889 538.75 309.093 540.208 310.296 540.354 310.898 540.5 311.5"
       stroke="#A16C31"
       stroke-width="1.33333"
       stroke-miterlimit="8"
       fill="none"
       fill-rule="evenodd"
       id="path64" />
    <path
       d="M508.5 313.5 517.852 317.593C520.758 318.829 523.665 319.767 525.94 320.919 528.214 322.07 529.857 323.285 531.5 324.5"
       stroke="#A16C31"
       stroke-width="1.33333"
       stroke-miterlimit="8"
       fill="none"
       fill-rule="evenodd"
       id="path65" />
    <path
       d="M515.5 269.5C517.86 271.77 520.219 274.04 522.898 275.262 525.577 276.484 529.105 276.31 531.571 276.833 534.037 277.357 536.206 277.794 537.694 278.405 539.182 279.016 539.841 279.758 540.5 280.5"
       stroke="#A16C31"
       stroke-width="1.33333"
       stroke-miterlimit="8"
       fill="none"
       fill-rule="evenodd"
       id="path66" />
    <path
       d="M466.605 241.5C466.491 243.462 466.377 245.425 466.801 246.828 467.225 248.232 468.367 248.977 469.151 249.922 469.934 250.867 470.717 251.684 471.5 252.5"
       stroke="#FFC271"
       stroke-width="0.666667"
       stroke-miterlimit="8"
       fill="none"
       fill-rule="evenodd"
       id="path67" />
    <path
       d="M0.126172 0C-0.0108781 3.92449-0.147928 7.84898 0.361125 10.6562 0.870178 13.4635 2.24075 14.9532 3.18056 16.8438 4.12037 18.7344 5.06019 20.3672 6 22"
       stroke="#FFC271"
       stroke-width="0.666667"
       stroke-miterlimit="8"
       fill="none"
       fill-rule="evenodd"
       transform="matrix(-1 0 0 1 465.5 355.5)"
       id="path68" />
    <path
       d="M447.5 318.5C450.229 319.292 452.958 320.083 454.75 320.5 456.542 320.917 458.25 321 458.25 321 460.375 321.417 465.125 321.958 467.5 323 469.875 324.042 470.667 325.833 472.5 327.25 474.333 328.667 476.458 330 478.5 331.5 480.542 333 483.042 335.25 484.75 336.25 486.458 337.25 487.792 337.125 488.75 337.5 489.708 337.875 490.104 338.188 490.5 338.5"
       stroke="#DCA152"
       stroke-width="0.666667"
       stroke-miterlimit="8"
       fill="none"
       fill-rule="evenodd"
       id="path69" />
    <path
       d="M0.105143 0C-0.00906512 0.891929-0.123273 1.78386 0.300937 2.42188 0.725148 3.05989 1.86729 3.39845 2.65047 3.82812 3.43365 4.25782 4.21682 4.62891 5 5"
       stroke="#FFC271"
       stroke-width="0.666667"
       stroke-miterlimit="8"
       fill="none"
       fill-rule="evenodd"
       transform="matrix(-1 0 0 1 449.5 274.5)"
       id="path70" />
    <path
       d="M510.108 31C500.216 52.1369 490.325 73.2737 486.269 90.4161 482.213 107.559 481.799 123.869 485.772 133.855 489.745 143.841 503.403 142.26 510.108 150.331 516.812 158.403 526 158.653 526 182.286 526 205.92 515.157 258.346 510.108 292.131 505.058 325.917 495.705 385 495.705 385"
       stroke="#5F5F5F"
       stroke-width="4"
       stroke-miterlimit="8"
       fill="none"
       fill-rule="evenodd"
       id="path71" />
    <path
       d="M454.5 278.5C456.808 279.59 459.115 280.681 460.962 281.625 462.808 282.569 464.385 283.318 465.577 284.164 466.769 285.01 466.808 285.857 468.115 286.703 469.423 287.549 471.462 288.786 473.423 289.242 475.385 289.698 478.039 289.405 479.885 289.437 481.731 289.47 483.115 289.453 484.5 289.437"
       stroke="#DCA152"
       stroke-width="0.666667"
       stroke-miterlimit="8"
       fill="none"
       fill-rule="evenodd"
       id="path72" />
    <path
       d="M483.5 130.5C479.25 132.861 475 135.222 472.571 139.833 470.143 144.444 469.812 152.389 468.929 158.166 468.045 163.944 468.321 165.444 467.273 174.5 466.224 183.555 463.74 200.666 462.636 212.499 461.533 224.333 461.808 235.666 460.649 245.499 459.49 255.332 457.117 262.388 455.682 271.499 454.247 280.61 454.247 290.832 452.039 300.165 449.831 309.499 445.195 320.054 442.435 327.498 439.675 334.943 437.136 341.554 435.481 344.832 433.825 348.109 433.162 347.637 432.5 347.165"
       stroke="#A16C31"
       stroke-width="1.33333"
       stroke-miterlimit="8"
       fill="none"
       fill-rule="evenodd"
       id="path73" />
    <path
       d="M560.787 230.034C569.492 232.342 578.198 234.65 583.376 237.432 588.554 240.214 587.863 242.608 591.855 246.728 595.847 250.847 602.225 258.059 607.327 262.147 612.429 266.235 616.672 267.955 622.468 271.255 628.263 274.556 637.633 279.282 642.101 281.95 646.57 284.619 646.514 285.835 649.278 287.265 652.042 288.696 655.363 289.616 658.685 290.536"
       stroke="#DCA152"
       stroke-miterlimit="8"
       fill="none"
       fill-rule="evenodd"
       id="path74" />
    <path
       d="M558.625 251.8C566.397 257.903 574.169 264.005 578.529 268.554 582.89 273.102 581.794 274.299 584.789 279.093 587.784 283.887 592.451 291.958 596.498 297.318 600.544 302.678 604.221 306.04 609.068 311.253 613.914 316.466 621.862 324.496 625.575 328.596 629.289 332.695 629.01 333.459 631.348 335.852 633.686 338.244 636.644 340.598 639.601 342.951"
       stroke="#DCA152"
       stroke-miterlimit="8"
       fill="none"
       fill-rule="evenodd"
       id="path75" />
    <path
       d="M607.19 341.836C603.384 339.585 599.578 337.334 595.633 335.631 591.687 333.929 586.513 333.011 583.519 331.621 580.525 330.231 579.955 329.26 577.668 327.29 575.381 325.319 572.158 322.286 569.798 319.798 567.438 317.311 564.922 314.053 563.508 312.365 562.094 310.678 561.703 310.175 561.313 309.673"
       stroke="#DCA152"
       stroke-width="0.666667"
       stroke-miterlimit="8"
       fill="none"
       fill-rule="evenodd"
       id="path76" />
    <path
       d="M616.5 373.5C612.647 372.729 608.795 371.958 604.998 371.75 601.201 371.542 596.629 372.5 593.717 372.25 590.804 372 590.03 371.292 587.523 370.25 585.016 369.208 581.403 367.5 578.675 366 575.947 364.5 572.85 362.333 571.154 361.25 569.459 360.167 568.979 359.833 568.5 359.5"
       stroke="#DCA152"
       stroke-width="0.666667"
       stroke-miterlimit="8"
       fill="none"
       fill-rule="evenodd"
       id="path77" />
    <path
       d="M558.987 287.167C556.921 289.171 554.855 291.175 552.414 292.252 549.973 293.329 547.017 293.132 544.342 293.629 541.666 294.127 539.449 294.979 536.363 295.238 533.277 295.498 528.781 295.383 525.824 295.186 522.868 294.988 520.746 294.52 518.624 294.053"
       stroke="#DCA152"
       stroke-width="0.666667"
       stroke-miterlimit="8"
       fill="none"
       fill-rule="evenodd"
       id="path78" />
    <path
       d="M559.63 299.245C556.505 299.52 553.38 299.795 550.911 301.693 548.442 303.59 546.565 308.394 544.817 310.629 543.069 312.865 542.537 313.215 540.424 315.103 538.311 316.991 534.045 320.334 532.14 321.959 530.235 323.583 528.995 324.849 528.995 324.849L527.422 326.294"
       stroke="#DCA152"
       stroke-width="0.666667"
       stroke-miterlimit="8"
       fill="none"
       fill-rule="evenodd"
       id="path79" />
    <path
       d="M561.99 318.298C558.648 318.368 555.306 318.439 551.827 319.172 548.348 319.905 543.982 321.446 541.116 322.695 538.25 323.944 536.903 325.612 534.632 326.665 532.361 327.719 529.686 328.216 527.492 329.014 525.297 329.812 523.18 330.578 521.466 331.451 519.751 332.324 518.757 333.311 517.205 334.253 515.654 335.195 513.905 336.149 512.156 337.104"
       stroke="#DCA152"
       stroke-width="0.666667"
       stroke-miterlimit="8"
       fill="none"
       fill-rule="evenodd"
       id="path80" />
    <path
       d="M565.956 344.331C564.485 345.196 563.015 346.06 560.857 346.394 558.7 346.727 555.503 346.491 553.011 346.331 550.519 346.17 547.861 345.043 545.905 345.429 543.949 345.816 542.612 347.233 541.275 348.65"
       stroke="#DCA152"
       stroke-width="0.666667"
       stroke-miterlimit="8"
       fill="none"
       fill-rule="evenodd"
       id="path81" />
    <path
       d="M559.443 242.794C556.025 242.908 552.607 243.021 550.31 242.698 548.014 242.375 546.934 241.313 545.665 240.856 544.396 240.399 544.058 239.792 542.696 239.957 541.334 240.122 538.911 241.031 537.493 241.846 536.074 242.661 535.22 244.286 534.185 244.847 533.15 245.408 532.216 245.311 531.282 245.213"
       stroke="#DCA152"
       stroke-width="0.666667"
       stroke-miterlimit="8"
       fill="none"
       fill-rule="evenodd"
       id="path82" />
    <path
       d="M588.152 243.5C587.444 248.852 586.736 254.203 589.366 258.031 591.996 261.859 599.077 263.891 603.933 266.469 608.789 269.047 613.644 271.274 618.5 273.5"
       stroke="#FFC271"
       stroke-width="0.666667"
       stroke-miterlimit="8"
       fill="none"
       fill-rule="evenodd"
       id="path83" />
    <path
       d="M0.464561 0C-0.0400531 2.11823-0.544667 4.23646 1.32965 5.75168 3.20397 7.2669 8.25039 8.07094 11.7108 9.09136 15.1711 10.1119 18.6315 10.9931 22.0919 11.8744"
       stroke="#FFC271"
       stroke-width="0.666667"
       stroke-miterlimit="8"
       fill="none"
       fill-rule="evenodd"
       transform="matrix(0.405105 0.91427 0.91427 -0.405105 603.507 305.086)"
       id="path84" />
    <path
       d="M0.197192 0C-0.0170013 4.44766-0.231195 8.89532 0.564397 12.0768 1.35999 15.2583 3.50204 16.9466 4.97086 19.0892 6.43968 21.2319 7.9085 23.0824 9.37732 24.9328"
       stroke="#FFC271"
       stroke-width="0.666667"
       stroke-miterlimit="8"
       fill="none"
       fill-rule="evenodd"
       transform="matrix(0.405105 0.91427 0.91427 -0.405105 586.532 369.279)"
       id="path85" />
    <path
       d="M566.683 351.472C566.128 353.085 565.574 354.698 564.152 356.355 562.73 358.011 560.149 359.912 558.152 361.411 556.154 362.91 553.402 363.783 552.168 365.349 550.934 366.915 550.84 368.861 550.746 370.807"
       stroke="#DCA152"
       stroke-width="0.666667"
       stroke-miterlimit="8"
       fill="none"
       fill-rule="evenodd"
       id="path86" />
    <path
       d="M462.971 201.566C460.518 204.304 458.065 207.043 455.763 208.857 453.46 210.67 450.964 211.743 449.153 212.446 447.343 213.148 446.121 213.111 444.898 213.073"
       stroke="#DCA152"
       stroke-width="0.666667"
       stroke-miterlimit="8"
       fill="none"
       fill-rule="evenodd"
       id="path87" />
    <path
       d="M0.105143 0C-0.00906512 2.14063-0.123273 4.28126 0.300937 5.8125 0.725148 7.34374 1.86729 8.15628 2.65047 9.1875 3.43365 10.2188 4.21682 11.1094 5 12"
       stroke="#FFC271"
       stroke-width="0.666667"
       stroke-miterlimit="8"
       fill="none"
       fill-rule="evenodd"
       transform="matrix(-1 0 0 1 651.5 227.5)"
       id="path88" />
    <path
       d="M0.105143 0C-0.00906512 1.60547-0.123273 3.21094 0.300937 4.35938 0.725148 5.5078 1.86729 6.11721 2.65047 6.89062 3.43365 7.66408 4.21682 8.33204 5 9"
       stroke="#FFC271"
       stroke-width="0.666667"
       stroke-miterlimit="8"
       fill="none"
       fill-rule="evenodd"
       transform="matrix(-1 0 0 1 641.5 280.5)"
       id="path89" />
    <path
       d="M604.598 168.417C598.84 182.225 584.647 190.059 570.678 187.138L577.117 156.338Z"
       fill="#000000"
       fill-rule="evenodd"
       fill-opacity="0.4"
       id="path90" />
    <path
       d="M576.5 157.5 683.512 248.687"
       stroke="#000000"
       stroke-miterlimit="8"
       stroke-dasharray="1 1"
       stroke-opacity="0.65098"
       fill="none"
       fill-rule="evenodd"
       id="path91" />
    <path
       d="M592.362 171.677C587.567 177.225 580.205 179.836 572.986 178.55L576.634 158.085Z"
       fill="#000000"
       fill-rule="evenodd"
       fill-opacity="0.4"
       id="path92" />
    <path
       d="M320.5 123C320.5 121.067 322.067 119.5 324 119.5L378 119.5C379.933 119.5 381.5 121.067 381.5 123L381.5 137C381.5 138.933 379.933 140.5 378 140.5L324 140.5C322.067 140.5 320.5 138.933 320.5 137Z"
       stroke="#000000"
       stroke-width="0.666667"
       stroke-linejoin="round"
       stroke-miterlimit="10"
       fill="#90602C"
       fill-rule="evenodd"
       id="path93" />
    <text
       fill="#FFFFFF"
       font-family="Arial,Arial_MSFontService,sans-serif"
       font-weight="400"
       font-size="9"
       transform="translate(342.454 133)"
       id="text93">LR1</text>
    <path
       d="M320.5 146C320.5 144.067 322.067 142.5 324 142.5L378 142.5C379.933 142.5 381.5 144.067 381.5 146L381.5 160C381.5 161.933 379.933 163.5 378 163.5L324 163.5C322.067 163.5 320.5 161.933 320.5 160Z"
       stroke="#000000"
       stroke-width="0.666667"
       stroke-linejoin="round"
       stroke-miterlimit="10"
       fill="#E0AC69"
       fill-rule="evenodd"
       id="path94" />
    <text
       font-family="Arial,Arial_MSFontService,sans-serif"
       font-weight="400"
       font-size="9"
       transform="translate(342.454 156)"
       id="text94">LR<tspan
   font-size="9"
   x="11.8333"
   y="0"
   id="tspan94">2</tspan></text>
    <path
       d="M320.5 99.0002C320.5 97.0671 322.067 95.5001 324 95.5001L378 95.5001C379.933 95.5001 381.5 97.0671 381.5 99.0002L381.5 113C381.5 114.933 379.933 116.5 378 116.5L324 116.5C322.067 116.5 320.5 114.933 320.5 113Z"
       stroke="#000000"
       stroke-width="0.666667"
       stroke-linejoin="round"
       stroke-miterlimit="10"
       fill="#5F5F5F"
       fill-rule="evenodd"
       id="path95" />
    <text
       fill="#FFFFFF"
       font-family="Arial,Arial_MSFontService,sans-serif"
       font-weight="400"
       font-size="9"
       transform="translate(325.454 109)"
       id="text96">Primary<tspan
   font-size="9"
   x="32.1667"
   y="0"
   id="tspan95" /><tspan
   font-size="9"
   x="34.8333"
   y="0"
   id="tspan96">root </tspan></text>
    <path
       d="M320.5 169C320.5 167.067 322.067 165.5 324 165.5L378 165.5C379.933 165.5 381.5 167.067 381.5 169L381.5 183C381.5 184.933 379.933 186.5 378 186.5L324 186.5C322.067 186.5 320.5 184.933 320.5 183Z"
       stroke="#000000"
       stroke-width="0.666667"
       stroke-linejoin="round"
       stroke-miterlimit="10"
       fill="#FFDBAC"
       fill-rule="evenodd"
       id="path96" />
    <text
       font-family="Arial,Arial_MSFontService,sans-serif"
       font-weight="400"
       font-size="9"
       transform="translate(342.454 179)"
       id="text97">LR<tspan
   font-size="9"
   x="11.8333"
   y="0"
   id="tspan97">3</tspan></text>
  </g>
</svg>
